<svg width="430" height="932" viewBox="0 0 430 932" preserveAspectRatio="none" fill="none" xmlns="http://www.w3.org/2000/svg">
<g clip-path="url(#clip0_344_190)">
<rect width="430" height="932" fill="#EC7082"/>
<rect y="214.936" width="429.664" height="721.481" rx="49.9487" fill="white"/>
<rect y="740.962" width="429.664" height="191.038" fill="white"/>
<path fill-rule="evenodd" clip-rule="evenodd" d="M0 886.944L9.98936 870.855C21.0886 854.766 41.0673 822.587 62.156 818.565C82.1347 816.554 103.223 838.676 123.202 842.699C144.291 846.721 165.379 830.632 185.358 822.587C206.447 816.554 226.425 816.554 247.514 826.609C267.493 838.676 288.581 862.81 309.67 862.81C329.649 862.81 350.737 838.676 370.716 808.509C391.805 776.331 411.783 738.119 422.883 718.007L432.872 697.896V933.201H422.883C411.783 933.201 391.805 933.201 370.716 933.201C350.737 933.201 329.649 933.201 309.67 933.201C288.581 933.201 267.493 933.201 247.514 933.201C226.425 933.201 206.447 933.201 185.358 933.201C165.379 933.201 144.291 933.201 123.202 933.201C103.223 933.201 82.1347 933.201 62.156 933.201C41.0673 933.201 21.0886 933.201 9.98936 933.201H0V886.944Z" fill="#F9D4DA"/>
</g>
<defs>
<clipPath id="clip0_344_190">
<rect width="430" height="932" fill="white"/>
</clipPath>
</defs>
</svg>
