<svg width="50" height="50" viewBox="0 0 430 932" preserveAspectRatio="none" fill="none" xmlns="http://www.w3.org/2000/svg">
<g clip-path="url(#clip0_335_323)">
<rect width="430" height="932" fill="white"/>
<path fill-rule="evenodd" clip-rule="evenodd" d="M430 44.6956L420.125 60.6013C409.152 76.5069 389.401 108.318 368.553 112.295C348.802 114.283 327.954 92.4126 308.204 88.4362C287.355 84.4598 266.507 100.365 246.757 108.318C225.909 114.283 206.158 114.283 185.31 104.342C165.559 92.4126 144.711 68.5541 123.863 68.5541C104.112 68.5541 83.264 92.4126 63.5132 122.236C42.6652 154.047 22.9144 191.823 11.9418 211.705L2.06638 231.587L2.06638 -1.03317H11.9418C22.9144 -1.03317 42.6652 -1.03317 63.5132 -1.03317C83.264 -1.03317 104.112 -1.03317 123.863 -1.03317C144.711 -1.03317 165.559 -1.03317 185.31 -1.03317C206.158 -1.03317 225.909 -1.03317 246.757 -1.03317C266.507 -1.03317 287.355 -1.03317 308.204 -1.03317C327.954 -1.03317 348.802 -1.03317 368.553 -1.03317C389.401 -1.03317 409.152 -1.03317 420.125 -1.03317H430L430 44.6956Z" fill="#CAECEF"/>
<path fill-rule="evenodd" clip-rule="evenodd" d="M0 894.027L9.93537 878.024C20.9747 862.022 40.8454 830.018 61.8201 826.017C81.6908 824.017 102.666 846.02 122.536 850.02C143.511 854.021 164.486 838.019 184.356 830.018C205.331 824.017 225.202 824.017 246.176 834.018C266.047 846.02 287.022 870.023 307.996 870.023C327.867 870.023 348.842 846.02 368.713 816.016C389.687 784.011 409.558 746.006 420.597 726.003L430.533 706V940.033H420.597C409.558 940.033 389.687 940.033 368.713 940.033C348.842 940.033 327.867 940.033 307.996 940.033C287.022 940.033 266.047 940.033 246.176 940.033C225.202 940.033 205.331 940.033 184.356 940.033C164.486 940.033 143.511 940.033 122.536 940.033C102.666 940.033 81.6908 940.033 61.8201 940.033C40.8454 940.033 20.9747 940.033 9.93537 940.033H0V894.027Z" fill="#CAECEF"/>
</g>
<defs>
<clipPath id="clip0_335_323">
<rect width="430" height="932" fill="white"/>
</clipPath>
</defs>
</svg>
