<svg width="430" height="932" viewBox="0 0 430 932" preserveAspectRatio="none" fill="none" xmlns="http://www.w3.org/2000/svg">
<g clip-path="url(#clip0_344_161)">
<rect width="430" height="932" fill="#4FC0CB"/>
<rect y="215" width="429.664" height="717.773" rx="49.6919" fill="white"/>
<rect y="740.962" width="429.664" height="191.038" fill="white"/>
<path fill-rule="evenodd" clip-rule="evenodd" d="M0 885.98L9.93839 869.972C20.981 853.965 40.8578 821.951 61.8389 817.949C81.7156 815.948 102.697 837.958 122.573 841.96C143.555 845.962 164.536 829.955 184.412 821.951C205.393 815.948 225.27 815.948 246.251 825.953C266.128 837.958 287.109 861.969 308.09 861.969C327.967 861.969 348.948 837.958 368.825 807.945C389.806 775.931 409.682 737.914 420.725 717.905L430.664 697.896V932H420.725C409.682 932 389.806 932 368.825 932C348.948 932 327.967 932 308.09 932C287.109 932 266.128 932 246.251 932C225.27 932 205.393 932 184.412 932C164.536 932 143.555 932 122.573 932C102.697 932 81.7156 932 61.8389 932C40.8578 932 20.981 932 9.93839 932H0V885.98Z" fill="#CAECEF"/>
</g>
<defs>
<clipPath id="clip0_344_161">
<rect width="430" height="932" fill="white"/>
</clipPath>
</defs>
</svg>
